<svg width="24" height="24" viewBox="0 0 24 24" fill="none" xmlns="http://www.w3.org/2000/svg">
<path fill-rule="evenodd" clip-rule="evenodd" d="M10.76 18.81H5.42C5.16786 18.81 4.91819 18.7604 4.68525 18.6639C4.4523 18.5674 4.24064 18.426 4.06236 18.2477C3.88407 18.0694 3.74264 17.8577 3.64615 17.6248C3.54966 17.3919 3.5 17.1422 3.5 16.89V8.75005H18.01V11.56C18.01 11.759 18.089 11.9497 18.2297 12.0904C18.3703 12.231 18.5611 12.31 18.76 12.31C18.9589 12.31 19.1497 12.231 19.2903 12.0904C19.431 11.9497 19.51 11.759 19.51 11.56V6.22005C19.51 5.31301 19.1497 4.44312 18.5083 3.80174C17.8669 3.16037 16.997 2.80005 16.09 2.80005H5.42C4.51377 2.80269 3.64541 3.16385 3.00461 3.80466C2.36381 4.44546 2.00264 5.31382 2 6.22005V16.89C2 17.7971 2.36032 18.667 3.00169 19.3084C3.64307 19.9497 4.51296 20.31 5.42 20.31H10.76C10.9589 20.31 11.1497 20.231 11.2903 20.0904C11.431 19.9497 11.51 19.759 11.51 19.56C11.51 19.3611 11.431 19.1704 11.2903 19.0297C11.1497 18.8891 10.9589 18.81 10.76 18.81ZM5.42 4.30005H16.09C16.3421 4.30005 16.5918 4.34971 16.8248 4.4462C17.0577 4.54269 17.2694 4.68412 17.4476 4.8624C17.6259 5.04069 17.7674 5.25235 17.8638 5.4853C17.9603 5.71824 18.01 5.96791 18.01 6.22005V7.22005H3.5V6.22005C3.5 5.71083 3.70229 5.22247 4.06236 4.8624C4.42242 4.50233 4.91078 4.30005 5.42 4.30005Z" fill="#195AB4"/>
<path d="M12.31 11.9001C12.7463 11.9001 13.1 11.5464 13.1 11.1101C13.1 10.6738 12.7463 10.3201 12.31 10.3201C11.8737 10.3201 11.52 10.6738 11.52 11.1101C11.52 11.5464 11.8737 11.9001 12.31 11.9001Z" fill="#195AB4"/>
<path d="M9.1801 11.9501C9.08032 11.9504 8.98157 11.9299 8.8901 11.8901C8.77557 11.837 8.67522 11.7575 8.59726 11.6582C8.51931 11.5589 8.46596 11.4426 8.44158 11.3187C8.4172 11.1949 8.42247 11.067 8.45697 10.9456C8.49148 10.8241 8.55423 10.7126 8.6401 10.6201C8.78916 10.4699 8.98883 10.3808 9.2001 10.3701C9.35675 10.3695 9.51003 10.4155 9.64046 10.5023C9.77088 10.5891 9.87257 10.7127 9.93259 10.8574C9.99261 11.0021 10.0083 11.1613 9.97755 11.3149C9.94684 11.4686 9.87115 11.6096 9.7601 11.7201C9.68376 11.7953 9.59308 11.8544 9.49345 11.8939C9.39382 11.9334 9.28726 11.9525 9.1801 11.9501Z" fill="#195AB4"/>
<path d="M6.82009 10.8001C6.75548 10.6629 6.65535 10.5455 6.53009 10.4601C6.40179 10.3683 6.24783 10.3193 6.09009 10.3201C6.0038 10.3247 5.91908 10.345 5.84009 10.3801C5.7429 10.4187 5.65448 10.4766 5.58009 10.5501C5.42936 10.6978 5.34309 10.8991 5.34009 11.1101C5.34453 11.2669 5.39278 11.4193 5.47938 11.5501C5.56598 11.6809 5.68747 11.7848 5.83009 11.8501C5.91442 11.8757 6.00196 11.8891 6.09009 11.8901C6.31043 11.8896 6.52196 11.8035 6.68009 11.6501C6.77799 11.5342 6.8427 11.394 6.86735 11.2444C6.89199 11.0947 6.87566 10.9412 6.82009 10.8001Z" fill="#195AB4"/>
<path d="M9.63055 13.1234C9.7592 13.2063 9.86278 13.3227 9.93012 13.4601C9.99299 13.6042 10.0141 13.7631 9.99116 13.9187C9.96818 14.0742 9.90199 14.2202 9.80012 14.3401C9.72378 14.4153 9.6331 14.4744 9.53346 14.5139C9.43383 14.5534 9.32727 14.5725 9.22012 14.5701C9.12034 14.5704 9.02158 14.5499 8.93012 14.5101C8.76336 14.4415 8.6251 14.3179 8.53828 14.1598C8.45146 14.0018 8.42132 13.8188 8.45285 13.6413C8.48439 13.4638 8.5757 13.3024 8.71164 13.1839C8.84757 13.0654 9.01994 12.997 9.20012 12.9901C9.35306 12.9945 9.50189 13.0406 9.63055 13.1234Z" fill="#195AB4"/>
<path d="M5.78004 14.51C5.8715 14.5499 5.97026 14.5704 6.07004 14.57C6.29038 14.5695 6.50191 14.4835 6.66004 14.33C6.76542 14.2144 6.83554 14.0711 6.86211 13.917C6.88869 13.7628 6.87062 13.6043 6.81004 13.46C6.75243 13.3271 6.65894 13.2128 6.54004 13.13C6.37464 13.0128 6.17091 12.9628 5.97004 12.99L5.82004 13.04C5.70364 13.0791 5.59764 13.144 5.51004 13.23C5.37463 13.382 5.29678 13.5766 5.29004 13.78C5.29398 13.9357 5.34216 14.087 5.42893 14.2163C5.5157 14.3455 5.63749 14.4474 5.78004 14.51Z" fill="#195AB4"/>
<path d="M8.40991 16.42C8.41402 16.2257 8.48461 16.0386 8.60991 15.89C8.70436 15.8026 8.81743 15.7377 8.9406 15.7004C9.06377 15.663 9.19382 15.6541 9.32094 15.6743C9.44805 15.6945 9.56892 15.7434 9.67441 15.8171C9.7799 15.8909 9.86726 15.9876 9.92991 16.1C9.98491 16.2219 10.0077 16.3558 9.99606 16.4889C9.98442 16.6221 9.93877 16.75 9.86347 16.8604C9.78818 16.9709 9.68577 17.0601 9.56607 17.1196C9.44637 17.179 9.3134 17.2067 9.17991 17.2C9.08081 17.2038 8.98203 17.1868 8.88991 17.15C8.74995 17.085 8.63088 16.9823 8.54609 16.8533C8.4613 16.7244 8.41414 16.5743 8.40991 16.42Z" fill="#195AB4"/>
<path d="M5.77999 17.1801C5.8721 17.2168 5.97089 17.2338 6.06999 17.2301C6.28378 17.2305 6.49025 17.1522 6.64999 17.0101C6.75899 16.8946 6.83213 16.75 6.86053 16.5938C6.88893 16.4376 6.87137 16.2765 6.80999 16.1301C6.75067 15.9895 6.64938 15.8708 6.51999 15.7901C6.39574 15.6978 6.24475 15.6486 6.08999 15.6501C5.98294 15.6519 5.87742 15.6757 5.77999 15.7201C5.69328 15.7584 5.61247 15.8089 5.53999 15.8701C5.44282 15.9605 5.36999 16.0739 5.32823 16.1998C5.28646 16.3258 5.2771 16.4603 5.30102 16.5908C5.32494 16.7214 5.38135 16.8438 5.46506 16.9468C5.54878 17.0497 5.65708 17.13 5.77999 17.1801Z" fill="#195AB4"/>
<path fill-rule="evenodd" clip-rule="evenodd" d="M19.6499 13.47C20.2617 13.4729 20.8475 13.7173 21.2799 14.15C21.4937 14.364 21.663 14.6182 21.778 14.898C21.893 15.1778 21.9514 15.4776 21.9499 15.78V18.89C21.9514 19.1925 21.893 19.4923 21.778 19.7721C21.663 20.0518 21.4937 20.3061 21.2799 20.52C20.8475 20.9527 20.2617 21.1971 19.6499 21.2H14.9699C14.3598 21.1948 13.7763 20.9494 13.3459 20.517C12.9154 20.0847 12.6725 19.5002 12.6699 18.89V15.78C12.6726 15.1682 12.9168 14.5822 13.3494 14.1495C13.7821 13.7169 14.3681 13.4727 14.9799 13.47H19.6499ZM14.6708 15.0327C14.5729 15.0739 14.4842 15.1342 14.4099 15.21C14.3341 15.2844 14.2738 15.373 14.2326 15.4709C14.1914 15.5688 14.1701 15.6738 14.1699 15.78H20.4499C20.4516 15.6745 20.4321 15.5696 20.3926 15.4717C20.3531 15.3738 20.2944 15.2849 20.2199 15.21C20.0685 15.0587 19.864 14.9726 19.6499 14.97H14.9799C14.8737 14.9702 14.7687 14.9915 14.6708 15.0327ZM19.6499 19.7C19.864 19.6975 20.0685 19.6114 20.2199 19.46C20.2944 19.3852 20.3531 19.2962 20.3926 19.1983C20.4321 19.1004 20.4516 18.9956 20.4499 18.89V17.31H14.1699V18.89C14.1725 19.1041 14.2587 19.3086 14.41 19.4599C14.5614 19.6113 14.7659 19.6974 14.9799 19.7H19.6499Z" fill="#195AB4"/>
</svg>
