<svg width="24" height="24" viewBox="0 0 24 24" fill="none" xmlns="http://www.w3.org/2000/svg">
<path d="M17.75 14.75V10.75C17.7399 10.5153 17.6835 10.2849 17.584 10.072C17.4844 9.85922 17.3437 9.66821 17.17 9.51003C16.26 8.60003 14.28 8.03003 12 8.03003C9.72 8.03003 7.74 8.60003 6.83 9.51003C6.65627 9.66821 6.51557 9.85922 6.41603 10.072C6.31648 10.2849 6.26005 10.5153 6.25 10.75V18.75C6.25 20.56 9.14 21.5 12 21.5C14.86 21.5 17.75 20.56 17.75 18.75V14.75ZM7.75 12.66C9.08827 13.2472 10.539 13.5339 12 13.5C13.461 13.5339 14.9117 13.2472 16.25 12.66V14.75C16.25 15.08 14.79 16 12 16C9.21 16 7.75 15.07 7.75 14.75V12.66ZM7.89 10.54C9.112 9.76203 10.75 9.54003 12 9.54003C13.25 9.54003 14.888 9.76203 16.11 10.54C16.21 10.64 16.25 10.71 16.25 10.75C16.25 11.08 14.78 12 12 12C9.22 12 7.75 11.07 7.75 10.75C7.75 10.75 7.79 10.64 7.89 10.54ZM12 20C9.21 20 7.75 19.07 7.75 18.75V16.66C9.08827 17.2472 10.539 17.5339 12 17.5C13.461 17.5339 14.9117 17.2472 16.25 16.66V18.75C16.25 19.07 14.79 20 12 20Z" fill="#195AB4"/>
</svg>
