<svg width="24" height="24" viewBox="0 0 24 24" fill="none" xmlns="http://www.w3.org/2000/svg">
<path d="M12 13.91C13.1046 13.91 14 13.0146 14 11.91C14 10.8055 13.1046 9.91003 12 9.91003C10.8954 9.91003 10 10.8055 10 11.91C10 13.0146 10.8954 13.91 12 13.91Z" stroke="#195AB4" stroke-width="1.5" stroke-linecap="round" stroke-linejoin="round"/>
<path d="M19.804 18.213C17.299 17.712 14.715 17.774 12.237 18.393L12 18.453C9.366 19.111 6.619 19.177 3.957 18.644L3.804 18.613C3.336 18.52 3 18.109 3 17.633V6.79402C3 6.16302 3.577 5.69002 4.196 5.81302C6.701 6.31402 9.285 6.25202 11.763 5.63302L12.236 5.51502C14.714 4.89602 17.299 4.83402 19.803 5.33502L20.195 5.41302C20.664 5.50702 21 5.91702 21 6.39402V17.233C21 17.864 20.423 18.337 19.804 18.213V18.213Z" stroke="#195AB4" stroke-width="1.5" stroke-linecap="round" stroke-linejoin="round"/>
<path d="M18 8.076C17.334 8.015 16.667 7.988 16 8.005" stroke="#195AB4" stroke-width="1.5" stroke-linecap="round" stroke-linejoin="round"/>
<path d="M6 15.9291C6.666 15.9901 7.333 16.0161 8 16.0001" stroke="#195AB4" stroke-width="1.5" stroke-linecap="round" stroke-linejoin="round"/>
</svg>
