<svg width="24" height="24" viewBox="0 0 24 24" fill="none" xmlns="http://www.w3.org/2000/svg">
<path d="M17.5 2.25H6.5C5.77065 2.25 5.07118 2.53973 4.55546 3.05546C4.03973 3.57118 3.75 4.27065 3.75 5V19C3.75 19.7293 4.03973 20.4288 4.55546 20.9445C5.07118 21.4603 5.77065 21.75 6.5 21.75H17.5C18.2293 21.75 18.9288 21.4603 19.4445 20.9445C19.9603 20.4288 20.25 19.7293 20.25 19V5C20.25 4.27065 19.9603 3.57118 19.4445 3.05546C18.9288 2.53973 18.2293 2.25 17.5 2.25ZM18.75 19C18.75 19.3315 18.6183 19.6495 18.3839 19.8839C18.1495 20.1183 17.8315 20.25 17.5 20.25H6.5C6.16848 20.25 5.85054 20.1183 5.61612 19.8839C5.3817 19.6495 5.25 19.3315 5.25 19V5C5.25 4.66848 5.3817 4.35054 5.61612 4.11612C5.85054 3.8817 6.16848 3.75 6.5 3.75H17.5C17.8315 3.75 18.1495 3.8817 18.3839 4.11612C18.6183 4.35054 18.75 4.66848 18.75 5V19Z" fill="#195AB4"/>
<path d="M16 6.75H14C13.8011 6.75 13.6103 6.82902 13.4697 6.96967C13.329 7.11032 13.25 7.30109 13.25 7.5C13.25 7.69891 13.329 7.88968 13.4697 8.03033C13.6103 8.17098 13.8011 8.25 14 8.25H16C16.1989 8.25 16.3897 8.17098 16.5303 8.03033C16.671 7.88968 16.75 7.69891 16.75 7.5C16.75 7.30109 16.671 7.11032 16.5303 6.96967C16.3897 6.82902 16.1989 6.75 16 6.75Z" fill="#195AB4"/>
<path d="M16 9.75H14C13.8011 9.75 13.6103 9.82902 13.4697 9.96967C13.329 10.1103 13.25 10.3011 13.25 10.5C13.25 10.6989 13.329 10.8897 13.4697 11.0303C13.6103 11.171 13.8011 11.25 14 11.25H16C16.1989 11.25 16.3897 11.171 16.5303 11.0303C16.671 10.8897 16.75 10.6989 16.75 10.5C16.75 10.3011 16.671 10.1103 16.5303 9.96967C16.3897 9.82902 16.1989 9.75 16 9.75Z" fill="#195AB4"/>
<path d="M16 14.25H8C7.80109 14.25 7.61032 14.329 7.46967 14.4697C7.32902 14.6103 7.25 14.8011 7.25 15C7.25 15.1989 7.32902 15.3897 7.46967 15.5303C7.61032 15.671 7.80109 15.75 8 15.75H16C16.1989 15.75 16.3897 15.671 16.5303 15.5303C16.671 15.3897 16.75 15.1989 16.75 15C16.75 14.8011 16.671 14.6103 16.5303 14.4697C16.3897 14.329 16.1989 14.25 16 14.25Z" fill="#195AB4"/>
<path d="M16 17.25H8C7.80109 17.25 7.61032 17.329 7.46967 17.4697C7.32902 17.6103 7.25 17.8011 7.25 18C7.25 18.1989 7.32902 18.3897 7.46967 18.5303C7.61032 18.671 7.80109 18.75 8 18.75H16C16.1989 18.75 16.3897 18.671 16.5303 18.5303C16.671 18.3897 16.75 18.1989 16.75 18C16.75 17.8011 16.671 17.6103 16.5303 17.4697C16.3897 17.329 16.1989 17.25 16 17.25Z" fill="#195AB4"/>
<path d="M8.61 9.55L10 9.9C10.0661 9.91764 10.1244 9.95663 10.166 10.0109C10.2076 10.0651 10.2301 10.1316 10.23 10.2C10.23 10.2796 10.1984 10.3559 10.1421 10.4121C10.0859 10.4684 10.0096 10.5 9.93 10.5H9.12C9.06156 10.4975 9.00484 10.4795 8.95564 10.4479C8.90644 10.4163 8.86653 10.3721 8.84 10.32C8.73523 10.1603 8.57416 10.0459 8.38886 9.99956C8.20356 9.95324 8.0076 9.97838 7.84 10.07C7.67649 10.1715 7.55892 10.3326 7.51225 10.5193C7.46558 10.706 7.49347 10.9035 7.59 11.07C7.70596 11.2987 7.86944 11.5 8.06949 11.6604C8.26955 11.8208 8.50156 11.9365 8.75 12C8.75 12.1989 8.82902 12.3897 8.96967 12.5303C9.11032 12.671 9.30109 12.75 9.5 12.75C9.69891 12.75 9.88968 12.671 10.0303 12.5303C10.171 12.3897 10.25 12.1989 10.25 12C10.6572 11.931 11.0283 11.7242 11.3011 11.4141C11.5738 11.1039 11.7316 10.7095 11.7481 10.2968C11.7645 9.88413 11.6385 9.47836 11.3912 9.14757C11.1439 8.81678 10.7904 8.58107 10.39 8.48L9 8.1C8.92043 8.09072 8.84782 8.05021 8.79812 7.98738C8.74842 7.92456 8.72572 7.84456 8.735 7.765C8.74428 7.68543 8.78479 7.61282 8.84762 7.56312C8.91044 7.51342 8.99043 7.49072 9.07 7.5H9.9C9.95844 7.5025 10.0152 7.52048 10.0644 7.55211C10.1136 7.58374 10.1535 7.62787 10.18 7.68C10.2319 7.76405 10.2998 7.83705 10.3799 7.89485C10.46 7.95265 10.5507 7.9941 10.6468 8.01686C10.7429 8.03961 10.8425 8.0432 10.94 8.02744C11.0375 8.01168 11.131 7.97687 11.215 7.925C11.299 7.87313 11.3721 7.80521 11.4298 7.72512C11.4876 7.64504 11.5291 7.55435 11.5519 7.45824C11.5746 7.36213 11.5782 7.26248 11.5624 7.16499C11.5467 7.06749 11.5119 6.97405 11.46 6.89C11.3302 6.67559 11.1575 6.4903 10.9527 6.34576C10.7479 6.20121 10.5155 6.10052 10.27 6.05V6C10.27 5.80109 10.191 5.61032 10.0503 5.46967C9.90968 5.32902 9.71891 5.25 9.52 5.25C9.32109 5.25 9.13032 5.32902 8.98967 5.46967C8.84902 5.61032 8.77 5.80109 8.77 6C8.3628 6.06895 7.99169 6.27583 7.71894 6.58594C7.44618 6.89606 7.28835 7.29053 7.27194 7.7032C7.25553 8.11587 7.38152 8.52164 7.62879 8.85243C7.87606 9.18322 8.22956 9.41893 8.63 9.52L8.61 9.55Z" fill="#195AB4"/>
</svg>
