<svg width="35" height="35" viewBox="0 0 35 35" fill="none" xmlns="http://www.w3.org/2000/svg">
<path d="M23.1316 25.8007L23.1315 25.8007L17.8818 20.5515L17.881 20.5507C17.8526 20.5222 17.7985 20.4944 17.7229 20.4944C17.6471 20.4945 17.5921 20.5225 17.5631 20.5515L12.2943 25.8199L12.2941 25.8201C11.3566 26.7569 10.1558 27.34 8.8597 27.4998L14.2727 32.9125C14.2727 32.9125 14.2727 32.9125 14.2727 32.9125C16.0563 34.6958 18.9481 34.6958 20.7317 32.9125C20.7317 32.9125 20.7317 32.9125 20.7317 32.9125L26.2175 27.4271C25.0553 27.2128 23.9844 26.6532 23.1316 25.8007Z" stroke="#195AB4" stroke-width="1.5"/>
<path d="M12.2939 9.18084L12.294 9.18097L17.5628 14.4502C17.6504 14.5377 17.7945 14.5371 17.8809 14.4505L17.8816 14.4497L23.1312 9.20005L23.1313 9.19989C23.9842 8.34752 25.055 7.78795 26.2172 7.57356L20.7315 2.08832C18.9479 0.30484 16.0562 0.30484 14.2725 2.08832L8.8597 7.50075C10.1557 7.66061 11.3566 8.2439 12.2939 9.18084Z" stroke="#195AB4" stroke-width="1.5"/>
<path d="M32.9123 14.275L32.9123 14.275L29.16 10.523C29.1491 10.5232 29.1381 10.5233 29.1271 10.5233H27.2952C26.5469 10.5233 25.8106 10.8284 25.2822 11.3571L25.282 11.3573L20.0324 16.6066C19.5385 17.1006 18.924 17.4033 18.2839 17.5147C18.9316 17.6226 19.5493 17.9184 20.0326 18.4024L25.282 23.6507L25.2823 23.6509C25.8107 24.1798 26.5469 24.4849 27.2952 24.4849H29.1271C29.1381 24.4849 29.1491 24.485 29.16 24.4852L32.9123 20.7334C32.9123 20.7334 32.9123 20.7334 32.9123 20.7334C34.6959 18.9497 34.6959 16.0583 32.9123 14.275ZM15.4083 18.4013C15.8917 17.9183 16.5094 17.6227 17.1571 17.5148C16.5169 17.4034 15.9027 17.1008 15.4088 16.6074L15.4085 16.6071L10.1392 11.3382L10.1391 11.3381C9.61047 10.8093 8.87433 10.5042 8.12601 10.5042H5.87336C5.86849 10.5042 5.86364 10.5042 5.8588 10.5042L2.08769 14.275L2.08767 14.275C0.304141 16.0583 0.304073 18.9497 2.08769 20.7334C2.0877 20.7334 2.0877 20.7334 2.08771 20.7334L5.85863 24.504C5.86353 24.504 5.86843 24.5039 5.87336 24.5039H8.12601C8.87434 24.5039 9.61047 24.1989 10.1391 23.6701L10.1392 23.6699L15.408 18.4015L15.4083 18.4013Z" stroke="#195AB4" stroke-width="1.5"/>
</svg>
