<svg width="24" height="24" viewBox="0 0 24 24" fill="none" xmlns="http://www.w3.org/2000/svg">
<path fill-rule="evenodd" clip-rule="evenodd" d="M17.5 6.36C19.14 7.63 20.55 9.35 21.54 11.18C21.82 11.69 21.82 12.31 21.54 12.83C20.55 14.67 19.14 16.39 17.5 17.65C15.87 18.91 13.96 19.76 12 19.76C10.04 19.76 8.13 18.91 6.5 17.65C4.86 16.38 3.45 14.66 2.46 12.83C2.18 12.31 2.18 11.69 2.46 11.18C3.45 9.34 4.86 7.63 6.5 6.36C8.13 5.1 10.04 4.25 12 4.25C13.96 4.25 15.87 5.1 17.5 6.36ZM12 18.25C13.53 18.25 15.12 17.58 16.58 16.45C18.04 15.33 19.32 13.78 20.22 12.11C20.26 12.04 20.26 11.96 20.22 11.89C19.32 10.23 18.04 8.68 16.58 7.55C15.12 6.42 13.53 5.75 12 5.75C10.47 5.75 8.88 6.42 7.42 7.55C5.96 8.68 4.68 10.22 3.78 11.89C3.74 11.96 3.74 12.04 3.78 12.11C4.68 13.77 5.96 15.32 7.42 16.45C8.88 17.58 10.47 18.25 12 18.25ZM9.37021 14.6197C7.92021 13.1697 7.92021 10.8197 9.37021 9.36973C10.8202 7.91973 13.1702 7.91973 14.6202 9.36973C16.0702 10.8197 16.0702 13.1697 14.6202 14.6197C13.1702 16.0697 10.8202 16.0697 9.37021 14.6197ZM10.3902 13.6197C11.2802 14.5097 12.7302 14.5097 13.6202 13.6197C14.5102 12.7197 14.5102 11.2797 13.6202 10.3897C12.7302 9.49973 11.2802 9.49973 10.3902 10.3897C9.50022 11.2797 9.50022 12.7297 10.3902 13.6197Z" fill="#195AB4"/>
</svg>
