<svg width="36" height="36" viewBox="0 0 36 36" fill="none" xmlns="http://www.w3.org/2000/svg">
<path d="M23.055 23.43C22.8493 23.4248 22.6481 23.3681 22.47 23.265L16.995 19.92C16.8292 19.8208 16.6922 19.6801 16.5975 19.5117C16.5028 19.3433 16.4537 19.1532 16.455 18.96V12C16.455 11.7016 16.5735 11.4155 16.7845 11.2045C16.9955 10.9935 17.2816 10.875 17.58 10.875C17.8784 10.875 18.1645 10.9935 18.3755 11.2045C18.5865 11.4155 18.705 11.7016 18.705 12V18.345L23.64 21.345C23.8492 21.4728 24.0109 21.6654 24.1005 21.8936C24.1902 22.1217 24.2029 22.3729 24.1366 22.6089C24.0704 22.8449 23.9289 23.0529 23.7337 23.2011C23.5384 23.3493 23.3001 23.4297 23.055 23.43Z" fill="#195AB4"/>
<path d="M18 32.625C15.1075 32.625 12.2799 31.7673 9.87479 30.1602C7.46972 28.5532 5.5952 26.2691 4.48827 23.5968C3.38134 20.9244 3.09171 17.9838 3.65602 15.1468C4.22033 12.3098 5.61323 9.70391 7.65857 7.65857C9.70391 5.61323 12.3098 4.22033 15.1468 3.65602C17.9838 3.09171 20.9244 3.38134 23.5968 4.48827C26.2691 5.5952 28.5532 7.46972 30.1602 9.87479C31.7673 12.2799 32.625 15.1075 32.625 18C32.621 21.8776 31.0789 25.5952 28.3371 28.3371C25.5952 31.0789 21.8776 32.621 18 32.625ZM18 5.62501C15.5525 5.62501 13.1599 6.35079 11.1248 7.71057C9.08977 9.07035 7.50363 11.0031 6.567 13.2643C5.63036 15.5255 5.3853 18.0137 5.86279 20.4142C6.34028 22.8148 7.51889 25.0198 9.24956 26.7505C10.9802 28.4811 13.1852 29.6597 15.5858 30.1372C17.9863 30.6147 20.4745 30.3696 22.7357 29.433C24.997 28.4964 26.9297 26.9102 28.2894 24.8752C29.6492 22.8401 30.375 20.4476 30.375 18C30.371 14.7192 29.066 11.5738 26.7461 9.25394C24.4262 6.93404 21.2808 5.62898 18 5.62501Z" fill="#195AB4"/>
</svg>
